<svg width="60" height="60" viewBox="0 0 60 60" fill="none" xmlns="http://www.w3.org/2000/svg">
<path d="M30 56L14 49.3172V31.6361L16.7081 32.3768L30 26V56Z" stroke="white" stroke-width="3" stroke-miterlimit="10" stroke-linejoin="round"/>
<path d="M30 25.6118L17.2968 32L2 25.4361L14.8165 19L30 25.6118Z" stroke="white" stroke-width="3" stroke-miterlimit="10" stroke-linejoin="round"/>
<path d="M30 56L45 49.3172V30.8631L42.2013 32.1031L30 26V56Z" stroke="white" stroke-width="3" stroke-miterlimit="10" stroke-linejoin="round"/>
<path d="M30 25.7528L42.0967 32L57 25.2798L44.842 19L30 25.7528Z" stroke="white" stroke-width="3" stroke-miterlimit="10" stroke-linejoin="round"/>
<path d="M41.0508 8L31 12.4796L44.998 19L55 14.6531L41.0508 8Z" stroke="white" stroke-width="3" stroke-miterlimit="10" stroke-linejoin="round"/>
<path d="M20.2689 8L31 12.5284L14.5907 19L4 14.2904L20.2689 8Z" stroke="white" stroke-width="3" stroke-miterlimit="10" stroke-linejoin="round"/>
</svg>
